<?xml version="1.0" encoding="UTF-8"?>
<!DOCTYPE svg PUBLIC "-//W3C//DTD SVG 1.1//EN" "http://www.w3.org/Graphics/SVG/1.1/DTD/svg11.dtd">
<!-- Creator: CorelDRAW -->
<svg xmlns="http://www.w3.org/2000/svg" xml:space="preserve" width="43.3492mm" height="43.3492mm" version="1.1" style="shape-rendering:geometricPrecision; text-rendering:geometricPrecision; image-rendering:optimizeQuality; fill-rule:evenodd; clip-rule:evenodd"
viewBox="0 0 4335 4335"
 xmlns:xlink="http://www.w3.org/1999/xlink">
 <defs>
  <style type="text/css">
   <![CDATA[
    .fil4 {fill:black}
    .fil6 {fill:#4D4D4D}
    .fil0 {fill:#7C858C}
    .fil3 {fill:#7ED63F}
    .fil5 {fill:#99A4AC}
    .fil1 {fill:#FCBE37}
    .fil2 {fill:#FF5100}
   ]]>
  </style>
 </defs>
 <g id="Layer_x0020_1">
  <metadata id="CorelCorpID_0Corel-Layer"/>
  <g id="_578344104">
   <path class="fil0" d="M2170 2012c-35,0 -63,-28 -63,-63l0 -1118c0,-36 28,-64 63,-64 35,0 63,28 63,64l0 1121c-3,36 -31,60 -63,60z"/>
   <path class="fil0" d="M1182 2012c-21,0 -42,-10 -53,-31l-560 -970c-18,-29 -7,-67 21,-85 28,-18 67,-7 84,21l561 974c18,28 7,67 -21,84 -10,7 -21,7 -32,7z"/>
   <path class="fil0" d="M3151 2012c-11,0 -22,-3 -32,-7 -28,-17 -39,-53 -21,-84l560 -974c18,-28 57,-39 85,-21 28,18 39,56 21,85l-561 973c-10,18 -31,28 -52,28z"/>
   <g>
    <path class="fil1" d="M609 3780c-5,0 -15,0 -20,-5 -344,-89 -589,-403 -589,-756 0,-359 241,-668 589,-756 44,-10 93,14 103,64 10,44 8,1358 0,1394 -10,34 -44,59 -83,59zm3117 0c-39,0 -73,-25 -83,-64 -10,-44 -2,-1385 0,-1394 10,-45 59,-74 103,-64 343,88 589,402 589,756 0,358 -241,668 -589,756 -5,10 -15,10 -20,10z"/>
    <path class="fil2" d="M3810 4192l-3295 0 0 -2204c0,-74 59,-138 138,-138l3019 0c74,0 138,59 138,138l0 2204z"/>
   </g>
   <path class="fil3" d="M2170 891c-208,0 -377,-166 -377,-374 0,-208 169,-374 377,-374 205,0 370,169 370,374 0,204 -165,374 -370,374z"/>
   <polygon class="fil4" points="311,443 311,443 "/>
   <path class="fil3" d="M466 1085c-31,0 -67,-4 -98,-15 -96,-24 -173,-88 -223,-172 -49,-89 -63,-187 -35,-286 25,-95 85,-176 169,-226 177,-102 406,-42 512,134 49,88 63,187 39,286 -25,95 -89,176 -173,226 -64,35 -127,53 -191,53z"/>
   <path class="fil3" d="M3867 1085c-64,0 -131,-18 -187,-50 -177,-102 -237,-331 -138,-511 106,-177 332,-237 512,-134 84,49 148,130 172,225 25,96 14,198 -35,283 -49,88 -130,148 -226,173 -31,7 -63,14 -98,14z"/>
   <path class="fil5" d="M2831 3485l-1330 0c-258,0 -466,-208 -466,-466 0,-254 208,-462 466,-462l1330 0c254,0 462,208 462,462 0,258 -208,466 -462,466z"/>
   <path class="fil6" d="M1642 3217c-109,0 -198,-88 -198,-198 0,-105 89,-194 198,-194 106,0 194,89 194,194 0,110 -85,198 -194,198z"/>
   <path class="fil6" d="M2689 3217c-109,0 -197,-88 -197,-198 0,-105 88,-194 197,-194 106,0 194,89 194,194 0,110 -88,198 -194,198z"/>
  </g>
 </g>
</svg>
