<svg viewBox="0 0 35 35" fill="none"
    xmlns="http://www.w3.org/2000/svg">
    <path fill-rule="evenodd" clip-rule="evenodd" d="M0.416016 17.5C0.416016 8.06514 8.06449 0.416672 17.4993 0.416672C26.9342 0.416672 34.5827 8.06514 34.5827 17.5C34.5827 26.9349 26.9342 34.5833 17.4993 34.5833C8.06449 34.5833 0.416016 26.9349 0.416016 17.5ZM23.8323 15.2913C24.4995 14.6242 24.4995 13.5425 23.8323 12.8754C23.1652 12.2082 22.0835 12.2082 21.4164 12.8754L15.791 18.5007L13.5823 16.292C12.9152 15.6249 11.8335 15.6249 11.1664 16.292C10.4992 16.9592 10.4992 18.0408 11.1664 18.708L14.583 22.1246C15.2502 22.7918 16.3318 22.7918 16.999 22.1246L23.8323 15.2913Z" fill="#4FDC8B"/>
</svg>
